<?xml version="1.0" encoding="utf-8"?>
<!-- Svg Vector Icons : http://www.onlinewebfonts.com/icon -->
<!DOCTYPE svg PUBLIC "-//W3C//DTD SVG 1.1//EN" "http://www.w3.org/Graphics/SVG/1.1/DTD/svg11.dtd">
<svg version="1.1" xmlns="http://www.w3.org/2000/svg" xmlns:xlink="http://www.w3.org/1999/xlink" x="0px" y="0px" viewBox="0 0 1000 1000" enable-background="new 0 0 1000 1000" xml:space="preserve">
<metadata> Svg Vector Icons : http://www.onlinewebfonts.com/icon </metadata>
<g><g transform="translate(0.000000,511.000000) scale(0.100000,-0.100000)"><path d="M9227.2,4895.6c-135.1-47.1-31.4,50.3-2541.1-2418.6C5756.3,1559.7,4983.6,809,4967.9,802.8c-15.7-6.3-914.1,863.8-1994.6,1931.8C1889.6,3802.5,950.5,4707.1,887.7,4744.8c-298.4,185.3-709.9-3.1-775.8-358.1C64.7,4135.4,55.3,4144.8,2203.8,2034C3309.4,950.4,4214,61.4,4214,55.2c0-3.1-857.5-848.1-1906.6-1878.3C1255.2-2853.5,359.9-3748.7,309.7-3811.5c-109.9-147.6-119.4-402.1-18.9-565.4c128.8-207.3,461.7-292.1,678.5-172.8c56.5,28.3,785.3,725.6,1617.6,1545.4c835.5,819.8,1711.9,1680.5,1947.5,1909.8l427.2,420.9l1994.6-1963.2C8052.4-3717.2,8994.8-4625,9051.3-4653.3c113.1-59.7,323.5-69.1,439.7-18.8c260.7,106.8,383.2,408.3,270.1,672.2c-25.1,59.7-829.2,873.2-2057.4,2079.4L5690.4,58.3l116.2,113.1c932.9,892.1,4014.3,3957.7,4048.8,4020.6c69.1,135.1,56.6,376.9-28.3,499.4C9698.3,4889.3,9443.9,4974.1,9227.2,4895.6z"/></g></g>
</svg>