<svg xmlns="http://www.w3.org/2000/svg" xmlns:xlink="http://www.w3.org/1999/xlink" version="1.1" x="0px" y="0px" viewBox="0 0 100 125" style="enable-background:new 0 0 100 100;" xml:space="preserve"><path style="fill: white" d="M66.667,58.347l-0.014-0.014L41.666,33.339L33.329,25h0L16.667,8.333l-5.312,5.313L22.709,25h-6.042  c-4.602,0-8.333,5.814-8.333,8.333V75c0,4.602,3.731,8.333,8.333,8.333v8.333h8.784v-8.333H50v8.333h8.784v-8.379  c4.388-0.239,7.883-3.84,7.883-8.288v-6.042L85.209,87.5l5.313-5.292L66.667,58.347L66.667,58.347z M20.833,75  c-2.301,0-4.167-1.866-4.167-4.167c0-2.301,1.865-4.167,4.167-4.167c2.301,0,4.167,1.865,4.167,4.167C25,73.134,23.135,75,20.833,75  z M54.167,75C51.865,75,50,73.134,50,70.833c0-2.301,1.865-4.167,4.167-4.167s4.167,1.865,4.167,4.167  C58.333,73.134,56.468,75,54.167,75z M16.667,58.333V37.5h18.542l20.833,20.833H16.667z"/><path style="fill: white" d="M66.667,8.333c-10.638,0-19.74,6.681-23.344,16.065l6.826,6.824c1.043-8.195,8.044-14.556,16.518-14.556  c9.189,0,16.666,7.477,16.666,16.667c0,8.472-6.359,15.473-14.552,16.517l6.825,6.824c9.382-3.605,16.061-12.705,16.061-23.341  C91.667,19.548,80.452,8.333,66.667,8.333z"/><polygon style="fill: white" points="62.5,20.833 62.5,37.5 79.167,37.5 79.167,29.167 70.834,29.167 70.834,20.833 "/></svg>
