<?xml version="1.0" encoding="utf-8"?>
<!-- Svg Vector Icons : http://www.onlinewebfonts.com/icon -->
<!DOCTYPE svg PUBLIC "-//W3C//DTD SVG 1.1//EN" "http://www.w3.org/Graphics/SVG/1.1/DTD/svg11.dtd">
<svg version="1.1" xmlns="http://www.w3.org/2000/svg" xmlns:xlink="http://www.w3.org/1999/xlink" x="0px" y="0px" viewBox="0 0 1000 1000" enable-background="new 0 0 1000 1000" xml:space="preserve">
<g><g transform="translate(0, 300) scale(0.100000,-0.100000)"><path style="fill:#FFF" d="M2051.1-238.2c-51.7-19.1-124.5-70.8-183.8-130.2c-114.9-113-160.8-233.6-160.8-411.7v-109.2l-220.2-11.5c-271.9-15.3-375.3-53.6-497.9-189.6c-124.5-137.9-143.6-222.1-143.6-622.3v-331.3H659c-147.4,0-206.8-9.6-273.8-40.2c-360-162.8-384.9-654.9-42.1-854c80.4-47.9,113-53.6,294.9-59.4l203-7.7l7.7-377.2c5.7-363.8,7.7-379.1,57.4-472.9c28.7-55.5,88.1-130.2,132.1-166.6c114.9-99.6,218.3-128.3,457.7-128.3h204.9l9.6-149.4c13.4-231.7,109.1-381.1,310.2-488.3c67-36.4,116.8-42.1,350.4-47.9c384.9-9.6,520.8,36.4,658.7,222.1c101.5,139.8,113,231.7,113,955.5v656.8h1855.5h1857.4l5.7-714.2c5.7-710.4,5.7-712.3,51.7-806.2c59.4-118.7,157-216.4,268.1-268.1c78.5-36.4,122.5-40.2,404-40.2c289.1,0,323.6,3.8,394.5,42.1c203,109.2,296.8,256.6,310.2,488.3l9.6,149.4h204.9c317.9,0,463.4,72.8,584,289.1c57.4,103.4,57.4,103.4,63.2,478.7l7.7,377.2l203,7.7c181.9,5.7,214.5,11.5,294.9,59.4c342.7,199.2,317.9,691.3-42.1,854c-67,30.6-126.4,40.2-271.9,40.2h-187.6v331.3c0,400.2-19.2,484.5-143.6,622.3c-122.6,136-229.8,176.2-499.8,189.6l-218.3,11.5v109.2c0,178.1-46,298.7-158.9,411.7c-139.8,139.8-220.2,162.8-555.3,162.8c-147.4,0-300.6-9.6-338.9-21.1c-122.6-36.4-250.8-149.4-316-275.7l-57.4-113l-5.7-714.2l-5.7-714.2H5000H3144.5l-5.7,714.2c-5.7,676-7.7,716.2-46,798.5c-59.4,130.2-130.2,203-260.4,266.2c-114.9,59.4-120.6,59.4-405.9,57.4C2215.8-207.5,2114.3-217.1,2051.1-238.2z"/></g></g>
</svg>
