<?xml version="1.0" standalone="no"?>
<!DOCTYPE svg PUBLIC "-//W3C//DTD SVG 20010904//EN"
 "http://www.w3.org/TR/2001/REC-SVG-20010904/DTD/svg10.dtd">
<svg version="1.0" xmlns="http://www.w3.org/2000/svg"
 width="1419.000000pt" height="505.000000pt" viewBox="0 0 1419.000000 505.000000"
 preserveAspectRatio="xMidYMid meet">
<metadata>
Created by potrace 1.15, written by Peter Selinger 2001-2017
</metadata>
<g transform="translate(0.000000,505.000000) scale(0.100000,-0.100000)"
fill="#000000" stroke="none">
<path d="M1887 4422 l-627 -627 0 -1900 0 -1900 633 632 632 631 85 7 c321 26
582 145 806 369 190 190 309 417 355 676 19 107 17 345 -4 453 -78 395 -344
736 -708 906 -137 64 -274 99 -456 116 l-73 7 0 629 c0 346 -3 629 -8 629 -4
0 -289 -282 -635 -628z"/>
<path d="M10020 3781 c-118 -38 -191 -95 -229 -181 -36 -80 -23 -201 29 -267
59 -75 144 -108 332 -129 95 -10 154 -22 179 -35 95 -48 87 -167 -15 -222 -34
-18 -57 -22 -141 -22 -84 0 -107 4 -142 22 -49 27 -82 70 -90 118 l-6 35 -98
0 c-99 0 -99 0 -99 -25 0 -48 43 -139 88 -187 182 -194 623 -161 734 56 30 58
36 171 13 233 -34 88 -122 159 -227 182 -24 6 -95 15 -158 21 -142 14 -173 23
-205 61 -48 58 -22 139 57 178 34 16 63 21 125 21 109 0 158 -25 193 -97 l25
-52 98 -1 99 0 -7 33 c-28 130 -123 224 -268 263 -73 19 -219 17 -287 -5z"/>
<path d="M4602 3428 c5 -404 7 -421 73 -513 91 -128 283 -185 475 -139 127 29
221 113 262 232 22 65 23 77 23 422 l0 355 -95 0 -95 0 -5 -360 c-5 -388 -6
-391 -62 -441 -43 -40 -84 -54 -157 -54 -81 0 -115 11 -154 48 -62 59 -62 54
-67 447 l-5 360 -98 3 -98 3 3 -363z"/>
<path d="M5600 3285 l0 -505 95 0 95 0 0 343 0 342 228 -342 227 -342 103 -1
102 0 -2 503 -3 502 -92 3 -93 3 -2 -342 -3 -342 -228 342 -227 341 -100 0
-100 0 0 -505z"/>
<path d="M6620 3285 l0 -505 100 0 100 0 0 505 0 505 -100 0 -100 0 0 -505z"/>
<path d="M6930 3787 c0 -5 313 -902 337 -964 l16 -43 106 0 106 0 170 491 c94
269 171 497 173 505 3 11 -14 14 -91 14 l-95 0 -127 -380 c-70 -209 -130 -380
-133 -380 -4 0 -64 170 -133 378 l-126 377 -101 3 c-56 1 -102 1 -102 -1z"/>
<path d="M7957 3783 c-4 -3 -7 -231 -7 -505 l0 -498 380 0 380 0 0 80 0 80
-280 0 -280 0 0 140 0 140 245 0 245 0 0 80 0 80 -245 0 -245 0 0 120 0 120
280 0 280 0 0 85 0 85 -373 0 c-206 0 -377 -3 -380 -7z"/>
<path d="M8860 3286 l0 -506 95 0 95 0 0 190 0 191 121 -3 122 -3 86 -187 86
-188 103 0 c56 0 102 3 102 8 0 4 -42 96 -94 204 l-94 197 44 22 c63 30 111
91 136 172 49 162 -32 319 -195 378 -57 20 -84 22 -334 27 l-273 4 0 -506z
m541 318 c52 -31 79 -78 79 -139 0 -59 -21 -94 -73 -122 -26 -15 -60 -18 -192
-18 l-160 0 -3 140 c-1 76 0 145 3 153 4 12 32 14 159 10 129 -4 159 -8 187
-24z"/>
<path d="M10730 3285 l0 -505 100 0 100 0 -2 503 -3 502 -97 3 -98 3 0 -506z"/>
<path d="M11060 3705 l0 -84 158 -3 157 -3 3 -417 2 -418 95 0 95 0 0 420 0
420 155 0 155 0 0 85 0 85 -410 0 -410 0 0 -85z"/>
<path d="M11996 3743 c15 -27 98 -168 186 -314 l158 -267 0 -191 0 -191 95 0
95 0 0 189 0 190 180 299 c99 165 183 307 186 316 6 15 -4 16 -92 14 l-99 -3
-127 -210 c-70 -115 -131 -211 -135 -212 -4 -1 -66 94 -137 212 l-129 215
-105 0 -104 0 28 -47z"/>
<path d="M13141 3504 c-95 -34 -151 -90 -187 -184 -14 -34 -18 -78 -18 -180
-1 -128 1 -138 27 -195 34 -73 67 -109 127 -140 137 -70 307 -44 399 62 60 68
76 125 76 273 0 147 -12 198 -64 266 -54 72 -128 107 -234 111 -57 2 -95 -2
-126 -13z m212 -137 c49 -37 69 -86 75 -186 11 -193 -50 -293 -178 -293 -55 0
-98 20 -133 62 -34 40 -42 82 -41 206 1 125 25 185 89 222 55 32 138 27 188
-11z"/>
<path d="M13650 3145 l0 -365 70 0 70 0 0 145 0 145 175 0 175 0 0 60 0 60
-175 0 -175 0 0 100 0 100 200 0 200 0 0 60 0 60 -270 0 -270 0 0 -365z"/>
<path d="M5767 2481 c-122 -40 -214 -125 -257 -240 -46 -121 -49 -386 -5 -511
41 -117 144 -214 268 -251 89 -28 234 -23 317 9 119 47 203 138 242 266 20 61
23 94 23 226 0 132 -4 166 -22 225 -41 130 -122 220 -240 266 -82 32 -245 37
-326 10z m268 -175 c52 -31 69 -51 97 -111 21 -46 23 -64 23 -215 0 -158 -1
-167 -27 -222 -84 -180 -336 -180 -424 -1 -28 57 -29 62 -29 223 0 161 1 166
28 223 32 64 75 102 139 123 57 18 142 10 193 -20z"/>
<path d="M8493 2485 c-159 -43 -263 -159 -263 -291 0 -63 34 -144 77 -186 71
-67 134 -88 333 -108 58 -6 119 -15 137 -21 48 -15 83 -62 83 -111 0 -93 -66
-140 -207 -146 -81 -4 -97 -2 -145 21 -58 26 -93 68 -104 126 l-7 32 -96 -3
-96 -3 3 -40 c7 -90 86 -196 181 -244 99 -51 285 -67 406 -36 223 58 326 256
229 436 -55 100 -143 143 -343 164 -75 9 -153 20 -173 25 -50 14 -78 52 -78
105 0 85 73 135 200 135 115 0 192 -46 207 -122 l6 -28 98 0 99 0 0 28 c-1 64
-66 164 -138 212 -100 66 -279 90 -409 55z"/>
<path d="M10669 2477 c-211 -72 -301 -247 -286 -552 12 -233 96 -370 267 -437
83 -32 228 -37 317 -9 124 37 227 134 268 251 44 125 41 390 -5 511 -63 165
-212 259 -409 259 -63 0 -104 -7 -152 -23z m271 -170 c91 -46 130 -145 130
-328 0 -168 -33 -265 -108 -314 -126 -82 -288 -39 -350 93 -26 55 -27 64 -27
222 0 163 0 166 30 225 32 65 85 110 146 126 51 12 128 2 179 -24z"/>
<path d="M4630 1981 l0 -512 98 3 97 3 3 182 2 181 173 4 c152 3 179 7 231 27
125 50 191 154 190 301 -1 143 -77 247 -212 291 -60 20 -95 23 -324 27 l-258
4 0 -511z m520 321 c51 -25 80 -74 80 -136 0 -71 -25 -116 -80 -143 -39 -21
-59 -23 -182 -23 l-138 0 0 160 0 160 143 0 c115 0 149 -3 177 -18z"/>
<path d="M6470 1980 l0 -511 98 3 97 3 3 193 2 193 117 -3 117 -3 90 -192 89
-193 104 0 c57 0 103 2 103 4 0 2 -43 94 -95 205 -52 111 -95 203 -95 206 0 2
17 13 39 24 55 29 118 105 136 164 46 155 -19 309 -159 373 -75 34 -163 44
-418 44 l-228 0 0 -510z m539 325 c41 -21 79 -70 87 -111 10 -53 -19 -118 -64
-146 -34 -21 -51 -23 -199 -26 l-163 -4 0 151 0 151 155 0 c117 0 163 -4 184
-15z"/>
<path d="M7350 2400 l0 -90 155 0 155 0 2 -417 3 -418 98 -3 97 -3 0 421 0
420 155 0 155 0 0 90 0 90 -410 0 -410 0 0 -90z"/>
<path d="M9200 1980 l0 -510 90 0 90 0 0 362 c0 209 4 358 9 353 5 -6 67 -163
139 -350 l130 -340 74 -3 73 -2 135 347 135 347 3 -357 2 -357 95 0 95 0 0
510 0 510 -124 0 -123 0 -128 -327 c-71 -181 -135 -344 -143 -362 l-14 -35
-141 362 -140 362 -129 0 -128 0 0 -510z"/>
<path d="M11392 2118 c3 -368 3 -374 27 -433 17 -41 42 -78 80 -116 77 -76
141 -101 282 -107 204 -8 331 57 401 204 40 86 49 185 46 529 l-3 290 -97 3
-98 3 0 -336 c0 -212 -4 -352 -11 -380 -6 -24 -27 -62 -46 -84 -73 -86 -236
-92 -327 -12 -10 9 -28 34 -40 56 -20 38 -21 54 -24 398 l-3 357 -95 0 -95 0
3 -372z"/>
<path d="M12330 2400 l0 -90 160 0 160 0 0 -420 0 -420 95 0 95 0 0 420 0 419
158 3 157 3 0 85 0 85 -412 3 -413 2 0 -90z"/>
<path d="M13250 1980 l0 -511 98 3 97 3 3 223 2 222 215 0 215 0 2 -222 3
-223 98 -3 97 -3 0 511 0 511 -97 -3 -98 -3 -3 -197 -2 -198 -215 0 -215 0 -2
198 -3 197 -97 3 -98 3 0 -511z"/>
</g>
</svg>
